<?xml version="1.0" standalone="no"?><!DOCTYPE svg PUBLIC "-//W3C//DTD SVG 1.1//EN" "http://www.w3.org/Graphics/SVG/1.1/DTD/svg11.dtd"><svg t="1641455558214" class="icon" viewBox="0 0 1024 1024" version="1.1" xmlns="http://www.w3.org/2000/svg" p-id="14526" xmlns:xlink="http://www.w3.org/1999/xlink" width="70" height="70"><defs><style type="text/css"></style></defs><path d="M550.912 201.216l-122.88 72.704-180.736-59.904c-20.992-5.632-22.016-7.168-34.816 0.512l-54.784 32.256c-16.896 10.24-7.168 14.848 26.112 40.448l98.304 73.216-194.56 115.2c21.504-0.512 148.992-12.8 175.616-28.672L583.68 257.024c15.36-9.216 20.48-29.184 11.264-44.544-9.216-15.36-28.672-20.48-44.032-11.264" fill="#515151" p-id="14527"></path><path d="M180.736 405.504l-76.288-24.064c-22.528-7.68-30.72-6.144-59.904 11.264l-29.696 17.408 71.168 51.2 94.72-55.808zM807.936 420.352c81.92-16.384 135.168-12.288 142.848 5.632 17.408 39.936-129.536 154.112-329.728 242.688-200.192 88.576-382.976 120.32-400.384 80.384-7.68-17.408 22.528-57.344 84.992-104.448 6.144-4.608 7.68-13.824 3.072-20.48-4.608-6.656-13.824-7.68-19.968-3.072-73.728 56.32-110.08 104.448-94.208 139.776 28.16 64.512 220.672 30.72 438.272-65.536 217.6-96.256 372.736-216.576 344.576-280.576-15.872-36.864-79.36-41.984-175.104-22.528-7.68 1.536-12.8 9.216-11.264 16.896 1.536 8.192 9.216 13.312 16.896 11.264z" fill="#515151" p-id="14528"></path><path d="M600.576 835.072c-118.272 0-214.016-95.744-214.016-213.504 0-117.76 95.744-213.504 214.016-213.504 118.272 0 214.016 95.744 214.016 213.504 0 118.272-95.744 213.504-214.016 213.504m0 29.184c134.144 0 243.2-108.544 243.2-242.688S734.72 378.88 600.576 378.88s-243.2 108.544-243.2 242.688c0.512 134.144 109.056 242.688 243.2 242.688z" fill="#515151" p-id="14529"></path><path d="M642.56 453.632c51.712 12.288 94.72 47.616 117.248 95.744 1.536 4.096 5.632 6.656 9.728 7.168 4.096 0.512 8.704-1.536 11.264-5.12 2.56-3.584 3.072-8.192 1.024-12.288-25.6-54.784-74.752-95.232-133.632-109.056-4.096-1.024-8.704 0-11.776 3.072-3.072 3.072-4.096 7.68-3.072 11.776 1.536 4.608 5.12 8.192 9.216 8.704z m-72.704 6.144c10.752-7.168 21.504-10.752 32.256-10.752 6.656 0 12.288-5.632 12.288-12.288 0-6.656-5.632-12.288-12.288-12.288-15.872 0-30.72 5.12-45.568 14.848-3.584 2.56-5.632 6.656-5.632 10.752 0 4.608 3.072 8.192 6.656 10.24 4.096 2.048 8.704 2.048 12.288-0.512" fill="#515151" p-id="14530"></path></svg>