<?xml version="1.0" standalone="no"?><!DOCTYPE svg PUBLIC "-//W3C//DTD SVG 1.1//EN" "http://www.w3.org/Graphics/SVG/1.1/DTD/svg11.dtd"><svg t="1641369537053" class="icon" viewBox="0 0 1025 1024" version="1.1" xmlns="http://www.w3.org/2000/svg" p-id="3248" xmlns:xlink="http://www.w3.org/1999/xlink" width="64.0625" height="64"><defs><style type="text/css"></style></defs><path d="M457.120652 0a48.324681 48.324681 0 0 1 39.796796 21.376565l227.126003 347.369181h175.21961c67.512423-0.056853 125.388335 57.81906 125.416761 125.416761v7.333981c0 33.400883-13.07609 64.982483-36.726758 88.633151a124.734531 124.734531 0 0 1-88.690003 36.726758h-173.030786L504.279856 974.82253c-8.869 13.360353-23.821225 21.404991-39.882076 21.404991H352.028683a47.983566 47.983566 0 0 1-38.801877-19.670988 47.670877 47.670877 0 0 1-7.106571-42.099325l87.098132-298.390695H255.862567L174.648675 732.829581c-9.096411 10.887266-22.570469 17.169475-36.726757 17.169475H47.58319a48.097271 48.097271 0 0 1-39.512534-21.404991 47.813008 47.813008 0 0 1-4.462927-44.799822l78.683952-190.740361-78.342836-179.88152a47.95514 47.95514 0 0 1 43.947034-66.972323h82.720484c13.758321 0 26.777559 6.083225 36.32879 16.657802l86.757016 100.941731h141.847153L301.145636 63.47589a47.926713 47.926713 0 0 1 45.283069-63.47589h110.691947zM853.468318 455.474336a28.426283 28.426283 0 0 0-28.426283 28.426283v28.426283a28.426283 28.426283 0 0 0 56.852567 0v-28.426283a28.426283 28.426283 0 0 0-28.426284-28.426283z" p-id="3249" fill="#1afa29"></path></svg>