<?xml version="1.0" standalone="no"?><!DOCTYPE svg PUBLIC "-//W3C//DTD SVG 1.1//EN" "http://www.w3.org/Graphics/SVG/1.1/DTD/svg11.dtd"><svg t="1641374002776" class="icon" viewBox="0 0 1024 1024" version="1.1" xmlns="http://www.w3.org/2000/svg" p-id="6847" width="40" height="40" xmlns:xlink="http://www.w3.org/1999/xlink"><defs><style type="text/css"></style></defs><path d="M941.186388 330.677305c-23.462365-55.471382-57.044204-105.282858-99.813287-148.051941s-92.581582-76.350922-148.052964-99.813287c-57.446363-24.298406-118.451786-36.617989-181.321672-36.617989-62.869886 0-123.875309 12.320607-181.321672 36.617989-55.471382 23.462365-105.282858 57.044204-148.051941 99.813287-42.769083 42.769083-76.350922 92.580558-99.813287 148.051941-24.298406 57.446363-36.617989 118.451786-36.617989 181.321672s12.320607 123.875309 36.617989 181.321672c23.462365 55.471382 57.044204 105.283882 99.813287 148.052964 42.769083 42.769083 92.580558 76.350922 148.051941 99.813287 57.446363 24.298406 118.451786 36.617989 181.321672 36.617989 62.869886 0 123.876332-12.319583 181.321672-36.617989 55.471382-23.462365 105.283882-57.044204 148.052964-99.813287s76.350922-92.581582 99.813287-148.052964c24.298406-57.446363 36.617989-118.452809 36.617989-181.321672S965.484793 388.123668 941.186388 330.677305zM915.250692 481.300814 748.675886 481.300814c-6.65149-52.108798-30.18651-100.286054-67.939345-138.039913-37.752836-37.752836-85.930091-61.286832-138.03889-67.938322L542.697651 108.747773C741.270219 123.723859 900.275629 282.730293 915.250692 481.300814zM481.299279 436.354136l-68.882833-70.89056c20.342304-13.867846 43.706431-23.614837 68.882833-28.02938L481.299279 436.354136zM439.363168 481.300814l-101.929484 0c4.719488-26.91193 15.532765-51.748594 30.957059-73.040527L439.363168 481.300814zM481.300302 542.699186l0 143.865595c-73.170486-12.830213-131.034359-70.694085-143.865595-143.865595L481.300302 542.699186zM542.698674 542.699186l143.865595 0c-12.831236 73.17151-70.695109 131.034359-143.865595 143.865595L542.698674 542.699186zM542.698674 481.300814l0-143.866618c73.17151 12.831236 131.035382 70.695109 143.865595 143.866618L542.698674 481.300814zM481.300302 108.747773l0 166.57583c-40.873919 5.216815-79.322603 20.828374-112.223944 45.537126L253.131673 201.538109C315.953464 149.068084 394.878001 115.26521 481.300302 108.747773zM209.100854 244.328681l115.953895 119.332852c-27.13808 34.065863-44.226271 74.500784-49.732681 117.639281L108.747261 481.300814C115.572714 390.792451 152.321686 308.505329 209.100854 244.328681zM108.747261 542.699186l166.574806 0c6.65149 52.108798 30.18651 100.286054 67.938322 138.03889 37.752836 37.753859 85.930091 61.287855 138.03889 67.939345l0 166.574806C282.729781 900.277164 123.723348 741.269707 108.747261 542.699186zM542.698674 915.251204 542.698674 748.676397c52.108798-6.65149 100.286054-30.18651 138.03889-67.939345s61.287855-85.930091 67.939345-138.03889l166.574806 0C900.274606 741.268684 741.269195 900.276141 542.698674 915.251204z" p-id="6848" fill="#ffffff"></path></svg>